<svg width="39" height="48" viewBox="0 0 39 48" fill="none" xmlns="http://www.w3.org/2000/svg">
<path d="M32.1517 25.7886C32.1021 19.9124 36.9968 17.0564 37.2118 16.9251C34.4337 12.9202 30.1343 12.3621 28.6295 12.3129C25.0246 11.9353 21.5189 14.4631 19.6834 14.4631C17.8148 14.4631 14.9706 12.3621 11.9279 12.4113C8.00881 12.477 4.32123 14.7257 2.32035 18.2382C-1.83024 25.3782 1.26203 35.883 5.24726 41.6607C7.24814 44.4839 9.56321 47.6517 12.6224 47.5368C15.5989 47.4219 16.7234 45.6492 20.3118 45.6492C23.8836 45.6492 24.9254 47.5368 28.0342 47.4712C31.2422 47.4219 33.2431 44.6316 35.1778 41.7756C37.4763 38.5421 38.4024 35.3414 38.4354 35.1773C38.3528 35.1444 32.2178 32.8137 32.1517 25.7886Z" fill="#616161"/>
<path d="M26.1288 8.34573C27.7234 6.345 28.8084 3.61674 28.5125 0.838867C26.211 0.938077 23.3177 2.44276 21.6574 4.41041C20.1943 6.14658 18.8792 8.97406 19.208 11.6362C21.8053 11.8346 24.4685 10.3134 26.1288 8.34573Z" fill="#616161"/>
</svg>
