<svg width="22" height="16" viewBox="0 0 22 16" fill="none" xmlns="http://www.w3.org/2000/svg">
<path d="M18.7835 0.318359C13.5922 0.318359 8.39419 0.318359 3.20295 0.318359C1.61088 0.318359 0.535889 1.39335 0.535889 2.98542C0.535889 6.55057 0.535889 10.0545 0.535889 13.0141C0.535889 13.1842 0.535889 13.3611 0.569907 13.5448C0.787626 14.8443 1.80138 15.6812 3.14171 15.6812C4.23711 15.6812 5.34612 15.6812 6.44832 15.6812C7.21034 15.6812 7.96555 15.6812 8.71396 15.6812H10.9864H13.3269C15.1435 15.6812 16.9601 15.6812 18.7835 15.6812C20.3891 15.6812 21.4641 14.6062 21.4641 13.0005C21.4641 9.66667 21.4641 6.33285 21.4641 2.99903C21.4573 1.40015 20.3823 0.318359 18.7835 0.318359ZM1.87622 3.01263C1.87622 2.63163 2.00549 2.28464 2.25723 2.0397C2.50216 1.79477 2.83555 1.6655 3.22336 1.6723C5.07397 1.69271 6.9586 1.69271 8.782 1.68591C10.2516 1.68591 11.728 1.68591 13.1976 1.68591C15.021 1.69271 16.8988 1.69271 18.7563 1.6723C18.7631 1.6723 18.7699 1.6723 18.7767 1.6723C19.1577 1.6723 19.4843 1.80157 19.7292 2.0397C19.9741 2.28464 20.1102 2.63163 20.1102 3.01263C20.083 6.35326 20.083 9.7143 20.1102 12.9937C20.1102 13.3747 19.9809 13.7149 19.736 13.9598C19.4911 14.2048 19.1577 14.334 18.7699 14.334H18.7631C16.1981 14.3204 13.6058 14.3204 11.0068 14.3204C8.4146 14.3204 5.81558 14.3272 3.23016 14.334H3.22336C2.83555 14.334 2.50216 14.2048 2.25043 13.9598C2.00549 13.7149 1.87622 13.3747 1.87622 12.9937C1.90344 9.65987 1.90344 6.30563 1.87622 3.01263Z" fill="#616161"/>
<path d="M18.314 3.56398C18.035 3.27822 17.5996 3.2374 17.2662 3.47553L16.4974 4.02663C15.783 4.54371 15.0618 5.0608 14.3474 5.57107C13.5174 6.163 12.6873 6.76173 11.8504 7.35365L10.9932 7.96599L4.93106 3.63201C4.91745 3.61841 4.89704 3.6048 4.87663 3.59119C4.80859 3.53676 4.72014 3.47553 4.61809 3.4211C4.25068 3.23059 3.84927 3.32585 3.60433 3.66603C3.3662 3.99261 3.40022 4.40084 3.69278 4.7002C3.76082 4.76824 3.82885 4.81586 3.87648 4.84988C3.88328 4.85668 3.89689 4.86349 3.90369 4.87029C6.06728 6.41474 8.23767 7.95238 10.4012 9.49682C10.6326 9.66692 10.8095 9.73495 10.9864 9.73495C11.1633 9.73495 11.3334 9.66692 11.5715 9.49682C13.7351 7.95238 15.8987 6.40113 18.0622 4.85668C18.1439 4.79545 18.2527 4.72061 18.3412 4.61855C18.6133 4.30558 18.5997 3.86334 18.314 3.56398Z" fill="#616161"/>
</svg>
