<svg width="19" height="22" viewBox="0 0 19 22" fill="none" xmlns="http://www.w3.org/2000/svg">
<path d="M9.24223 16.015C10.0343 16.015 10.6765 15.3728 10.6765 14.5807C10.6765 13.7886 10.0343 13.1465 9.24223 13.1465C8.45012 13.1465 7.80798 13.7886 7.80798 14.5807C7.80798 15.3728 8.45012 16.015 9.24223 16.015Z" fill="#616161"/>
<path d="M15.4937 8.56705C15.1721 8.52203 14.8441 8.5156 14.4968 8.50917C14.3296 8.50273 14.1559 8.50273 13.9823 8.4963L13.725 8.48344V8.22618C13.725 7.97534 13.725 7.72451 13.725 7.48011C13.725 6.88197 13.725 6.27097 13.7186 5.67283C13.7122 5.33196 13.7057 4.96535 13.6543 4.62448C13.4871 3.51181 12.8375 2.46989 11.8727 1.76885C10.908 1.06781 9.71815 0.771953 8.61191 0.958469C6.32226 1.33793 4.77225 3.15164 4.75938 5.47345C4.75938 5.99441 4.75938 6.52823 4.75938 7.04276V7.11351C4.75938 7.3965 4.75938 7.68592 4.75938 7.96891C4.75938 8.03966 4.75295 8.11041 4.75295 8.17472C4.75295 8.20688 4.74652 8.23904 4.74652 8.2712L4.73366 8.52846H3.64672C1.53715 8.52846 0 10.0592 0 12.1623C0 14.6899 0 15.0823 0 17.4684C0 19.5651 1.53072 21.0894 3.62742 21.0958C4.5793 21.0958 5.53117 21.0958 6.48305 21.0958H7.76294C8.48328 21.0958 9.20362 21.0958 9.93039 21.0958H10.0204C11.6348 21.0958 13.3005 21.0958 14.9406 21.0894C16.9022 21.0829 18.4587 19.5779 18.478 17.6678C18.5101 15.1787 18.5101 14.7542 18.478 11.9565C18.4523 10.2586 17.1724 8.80502 15.4937 8.56705ZM6.17433 4.92033C6.30297 3.46036 7.67933 2.27052 9.22934 2.27052H9.24221C10.8244 2.27052 12.1686 3.44107 12.3036 4.9332C12.3744 5.69213 12.3615 6.46392 12.3551 7.20998C12.3551 7.53799 12.3487 7.87244 12.3487 8.20045C12.3487 8.30979 12.2908 8.3741 12.2715 8.39983C12.2715 8.39983 12.2651 8.40626 12.2586 8.41269L12.1814 8.50917H6.28367L6.20649 8.3934C6.18077 8.36767 6.12931 8.29692 6.12931 8.18759C6.12931 7.85957 6.12931 7.51227 6.12931 7.20355C6.11002 6.45105 6.10359 5.67926 6.17433 4.92033ZM17.1081 17.4555C17.1081 18.8062 16.1883 19.7194 14.8248 19.7194C13.5192 19.7194 12.22 19.7194 10.9144 19.7194H9.22934C8.90133 19.7194 8.57332 19.7194 8.24531 19.7194H7.287C6.83679 19.7194 6.38015 19.7194 5.9235 19.7194C5.14528 19.7194 4.36062 19.7194 3.5824 19.7194C2.48903 19.7194 1.63363 19.0441 1.40209 18.0022C1.3635 17.8157 1.35707 17.6292 1.35707 17.4555V16.3943C1.35707 14.8764 1.35707 14.2526 1.35707 12.1494C1.35707 10.7924 2.25749 9.8791 3.6017 9.87266C7.33845 9.8598 11.1267 9.8598 14.8634 9.87266C16.2012 9.8791 17.1016 10.7924 17.1081 12.1494C17.1145 14.8121 17.1145 15.108 17.1081 17.4555Z" fill="#616161"/>
</svg>
