<svg width="43" height="48" viewBox="0 0 43 48" fill="none" xmlns="http://www.w3.org/2000/svg">
<path d="M2.03668 47.3785C2.01377 47.3434 1.9985 47.2946 1.96643 47.2762C0.64082 46.4729 0.135317 45.2756 0.136844 43.753C0.152116 30.5778 0.149062 17.4027 0.141426 4.22749C0.139899 2.77665 0.674419 1.66638 1.89465 0.898198C2.0489 0.801984 2.24896 0.824892 2.37878 0.951649L25.6686 23.7894C25.8473 23.9635 25.8106 24.2476 25.6121 24.3957C25.5938 24.4095 25.577 24.4232 25.5617 24.4385C17.8844 31.9584 10.2133 39.4844 2.54371 47.0105C2.47041 47.0823 2.40321 47.1602 2.33754 47.2396C2.26271 47.3266 2.15275 47.3785 2.03668 47.3785Z" fill="#616161"/>
<path d="M32.8865 31.8754C25.4597 36.0676 17.9337 40.3162 10.3985 44.5695C10.0869 44.1572 10.1816 44.2824 9.87006 43.87L27.7032 26.2828C27.8605 26.1286 28.114 26.1331 28.2652 26.292L32.9781 31.2615C33.1538 31.4478 33.1095 31.7502 32.8865 31.8754Z" fill="#616161"/>
<path d="M10.4945 3.61035L32.9016 16.2586C33.1246 16.3839 33.1704 16.6862 32.9932 16.871C31.4248 18.5235 29.8563 20.1744 28.2742 21.8421C28.123 22.0024 27.8695 22.0055 27.7122 21.8512C21.7515 15.9715 15.8473 10.1498 9.94928 4.33272C10.27 3.90663 10.1738 4.03644 10.4945 3.61035Z" fill="#616161"/>
<path d="M30.0431 24.0398C31.581 22.5538 33.096 21.0892 34.6125 19.6262C35.0279 19.2261 35.454 18.8366 35.8541 18.4228C36.0328 18.2364 36.1702 18.212 36.3978 18.3433C38.064 19.3055 39.75 20.2355 41.4085 21.2114C43.4565 22.4164 43.3893 25.877 41.3123 27.0362C39.6843 27.9449 38.0563 28.8505 36.4314 29.7638C36.2283 29.8783 36.0847 29.9287 35.8801 29.7302C33.9787 27.8777 32.0651 26.0374 30.1561 24.1925C30.124 24.162 30.1027 24.1223 30.0431 24.0398Z" fill="#616161"/>
</svg>
